<?xml version="1.0" standalone="no"?>
<!DOCTYPE svg PUBLIC "-//W3C//DTD SVG 20010904//EN"
  "http://www.w3.org/TR/2001/REC-SVG-20010904/DTD/svg10.dtd">
<svg version="1.0" xmlns="http://www.w3.org/2000/svg"
     width="2000.000000pt" height="264.000000pt" viewBox="0 0 2000.000000 264.000000"
     preserveAspectRatio="xMidYMid meet">

  <g transform="translate(0.000000,264.000000) scale(0.100000,-0.100000)"
     fill="#000000" stroke="none">
    <path d="M7722 2482 c-17 -27 -44 -72 -59 -102 -15 -29 -39 -63 -53 -76 -14
-12 -49 -44 -79 -71 -54 -48 -83 -83 -199 -242 -34 -47 -68 -93 -75 -101 -7
-8 -23 -32 -36 -53 -12 -20 -31 -42 -42 -47 -10 -6 -19 -17 -19 -25 0 -8 -9
-20 -20 -27 -24 -15 -25 -24 -5 -44 27 -27 19 -46 -15 -39 -26 6 -31 3 -39
-18 -5 -14 -15 -27 -22 -29 -7 -2 -12 -19 -11 -37 0 -24 -3 -31 -14 -27 -9 4
-14 -2 -14 -17 0 -12 -17 -49 -38 -82 -21 -33 -44 -76 -51 -95 -8 -19 -22 -54
-33 -77 -19 -41 -19 -43 -1 -67 22 -31 30 -32 38 -3 4 12 22 54 40 92 18 39
52 111 76 160 23 50 55 109 71 132 15 23 28 46 28 51 0 6 4 12 9 14 5 2 40 55
79 118 126 204 197 297 292 380 60 52 140 152 140 174 0 8 5 18 10 21 6 3 10
17 10 30 0 18 7 25 30 30 33 7 86 64 93 101 4 21 1 24 -28 24 -27 0 -36 -7
-63 -48z"/>
    <path d="M8994 2513 c2 -10 12 -49 22 -88 9 -38 22 -81 30 -95 7 -14 17 -54
23 -91 9 -64 44 -156 65 -172 6 -4 38 -6 70 -5 l59 3 24 -57 c28 -69 37 -195
16 -224 -7 -10 -13 -28 -13 -40 0 -12 -7 -35 -15 -50 -18 -36 -19 -64 -1 -129
18 -68 32 -92 57 -100 16 -5 19 -13 15 -29 -7 -29 1 -38 24 -24 14 9 26 7 53
-5 19 -9 44 -17 56 -17 22 0 44 -8 139 -51 35 -16 65 -29 67 -29 3 0 69 -31
147 -69 79 -38 168 -74 198 -80 85 -19 123 -32 153 -53 31 -23 56 -18 64 13 4
14 12 19 27 17 16 -2 22 -12 26 -43 3 -27 10 -40 20 -40 17 0 17 2 7 73 -6 42
-11 51 -21 43 -16 -13 -26 -4 -26 22 0 10 9 21 20 24 11 3 22 15 25 27 16 82
30 138 47 185 19 58 24 131 9 131 -6 0 -18 -13 -28 -30 -9 -17 -23 -30 -29
-30 -7 0 -21 -11 -31 -23 -10 -13 -29 -30 -43 -37 -14 -7 -31 -19 -38 -27 -7
-7 -20 -13 -27 -13 -8 0 -17 -9 -20 -20 -4 -14 -15 -20 -36 -20 -16 0 -29 -4
-29 -10 0 -17 -134 -11 -198 8 -32 11 -83 35 -113 55 -113 76 -223 197 -179
197 6 0 10 -5 10 -12 0 -6 2 -9 5 -6 8 7 -37 90 -75 138 -19 24 -52 73 -72
108 -51 86 -51 117 -1 70 36 -34 29 -1 -17 80 -22 38 -49 94 -59 125 -24 70
-38 96 -69 127 -40 41 -129 171 -159 232 l-28 58 -78 0 c-70 0 -78 -2 -73 -17z
m486 -882 c0 -70 -17 -132 -42 -157 -14 -14 -19 -14 -47 0 -37 20 -57 49 -65
98 -8 44 17 115 44 123 9 3 25 14 35 25 17 19 18 19 46 -2 27 -20 29 -27 29
-87z m105 -19 c-19 -4 -37 16 -28 31 3 4 14 0 25 -10 18 -16 19 -18 3 -21z"/>
    <path d="M9904 2505 c-19 -30 -45 -31 -99 -5 -37 17 -42 18 -65 3 -14 -9 -40
-26 -57 -37 -60 -38 -34 -86 33 -63 21 8 64 12 95 10 52 -3 59 -1 81 25 29 35
71 50 119 44 40 -4 58 10 39 33 -8 10 -32 15 -71 15 -51 0 -61 -3 -75 -25z"/>
    <path d="M8907 2467 c3 -15 9 -27 14 -27 13 0 11 13 -5 35 -13 18 -14 18 -9
-8z"/>
    <path d="M10526 2371 c-18 -80 -14 -201 6 -201 15 0 22 32 10 51 -14 22 -16
49 -3 49 15 0 19 59 4 64 -18 7 -16 26 2 26 12 0 14 8 9 43 -4 23 -8 43 -9 45
-1 1 -10 -33 -19 -77z"/>
    <path d="M10220 2406 c0 -11 14 -48 32 -83 17 -35 28 -66 23 -70 -4 -5 -10 -2
-12 5 -3 6 -10 12 -17 12 -7 0 -28 8 -47 17 -32 16 -101 19 -123 5 -6 -3 -18
-5 -28 -4 -9 2 -19 -2 -23 -8 -3 -5 -17 -10 -30 -10 -13 0 -26 -4 -29 -9 -7
-10 52 -24 65 -15 6 3 16 0 24 -6 8 -7 21 -10 29 -7 19 7 76 -20 76 -36 0 -22
-96 -49 -215 -62 -22 -2 -78 -11 -125 -20 -47 -9 -100 -19 -117 -22 l-33 -5
23 46 c12 25 31 49 42 52 20 5 49 17 93 37 41 19 27 37 -25 31 -27 -2 -73 -6
-103 -7 -54 -2 -54 -2 -106 -66 -48 -60 -51 -67 -41 -95 6 -17 45 -65 88 -108
43 -43 87 -90 98 -104 28 -35 56 -29 55 13 -2 28 2 32 45 46 29 9 65 13 95 10
38 -5 53 -2 75 15 59 43 142 65 156 42 9 -14 45 -12 49 3 21 74 34 104 58 134
28 36 33 35 41 -17 2 -14 5 17 6 68 1 102 -10 135 -68 202 -25 29 -30 32 -31
16z"/>
    <path d="M9898 2233 c7 -3 16 -2 19 1 4 3 -2 6 -13 5 -11 0 -14 -3 -6 -6z"/>
    <path d="M10517 2123 c-12 -19 -18 -103 -9 -118 7 -14 11 -9 21 28 6 25 11 55
11 66 0 21 -15 37 -23 24z"/>
    <path d="M10474 1958 c-7 -10 18 -68 28 -68 5 0 8 17 8 38 0 28 -4 39 -15 39
-9 0 -18 -4 -21 -9z"/>
    <path d="M11935 1864 c31 -28 37 -28 28 4 -4 15 -13 22 -31 22 l-25 0 28 -26z"/>
    <path d="M9510 1866 c0 -8 7 -16 15 -20 13 -4 14 -2 5 14 -13 23 -20 26 -20 6z"/>
    <path d="M10179 1829 c-56 -67 -108 -90 -219 -96 -77 -4 -88 -2 -119 19 -19
13 -43 28 -53 34 -10 6 -26 18 -35 26 -19 16 -53 31 -53 22 0 -2 11 -22 25
-44 26 -42 31 -65 15 -75 -5 -3 -7 -12 -3 -21 5 -12 7 -12 18 3 13 17 15 17
62 -1 67 -27 127 -30 205 -12 81 19 136 47 154 78 32 57 56 109 52 114 -3 3
-25 -18 -49 -47z"/>
    <path d="M11794 1807 c-11 -29 45 -107 77 -107 48 0 39 75 -11 87 -14 3 -33
12 -42 21 -16 13 -18 13 -24 -1z"/>
    <path d="M9550 1800 c0 -5 5 -10 11 -10 5 0 7 5 4 10 -3 6 -8 10 -11 10 -2 0
-4 -4 -4 -10z"/>
    <path d="M11660 1741 c0 -16 -7 -36 -15 -45 -17 -17 -20 -42 -4 -51 5 -4 14
-18 19 -31 13 -33 39 -42 56 -20 7 10 27 25 46 34 22 12 34 25 36 43 3 22 -2
27 -37 38 -22 6 -49 23 -59 36 -26 33 -42 32 -42 -4z"/>
    <path d="M4540 1730 c-11 -11 -20 -29 -20 -40 0 -11 -7 -20 -15 -20 -8 0 -15
-4 -15 -10 0 -5 7 -10 15 -10 12 0 15 -16 15 -80 0 -64 3 -80 15 -80 12 0 15
16 15 80 l0 80 45 0 45 0 0 -80 c0 -64 3 -80 15 -80 12 0 15 16 15 80 0 79 0
80 25 80 14 0 25 5 25 10 0 6 -12 10 -26 10 -21 0 -25 4 -22 23 2 16 11 23 31
25 32 4 36 18 7 27 -30 9 -70 -20 -70 -50 0 -23 -4 -25 -46 -25 -41 0 -45 2
-42 23 2 16 10 22 28 22 29 0 45 16 27 27 -21 13 -46 9 -67 -12z"/>
    <path d="M5287 1743 c-4 -3 -7 -62 -7 -130 0 -103 2 -123 15 -123 13 0 15 21
15 130 0 119 -4 142 -23 123z"/>
    <path d="M3600 1720 c0 -5 11 -10 25 -10 l25 0 0 -110 c0 -91 3 -110 15 -110
13 0 15 20 15 120 l0 120 -40 0 c-22 0 -40 -4 -40 -10z"/>
    <path d="M3750 1716 c0 -7 -3 -34 -6 -60 l-7 -46 36 0 c71 0 117 -39 87 -75
-15 -18 -91 -20 -108 -3 -9 9 -15 9 -23 1 -17 -17 29 -43 79 -43 32 0 49 6 67
25 51 50 15 115 -63 115 -44 0 -49 7 -36 58 6 19 13 22 60 22 30 0 54 5 54 10
0 6 -30 10 -70 10 -52 0 -70 -3 -70 -14z"/>
    <path d="M3930 1711 c-16 -32 -12 -76 10 -96 49 -44 114 33 76 90 -21 31 -70
35 -86 6z m71 -22 c8 -16 8 -28 0 -46 -21 -45 -70 -11 -57 40 8 33 40 36 57 6z"/>
    <path d="M4032 1610 c-47 -67 -77 -120 -69 -120 7 0 50 54 96 120 46 67 76
120 69 120 -8 0 -51 -54 -96 -120z"/>
    <path d="M320 1305 l0 -415 1305 0 1305 0 0 415 0 415 -1305 0 -1305 0 0 -415z
m321 95 c28 -15 25 -44 -3 -36 -82 23 -128 13 -128 -28 0 -19 9 -27 40 -40 22
-9 46 -16 54 -16 7 0 25 -9 40 -21 53 -41 25 -121 -46 -131 -68 -10 -157 27
-131 53 8 8 20 6 41 -5 58 -30 122 -15 122 28 0 21 -9 27 -62 45 -77 26 -98
45 -98 87 0 47 38 74 102 74 27 0 58 -5 69 -10z m129 -50 l0 -60 80 0 80 0 0
60 c0 53 2 60 20 60 19 0 20 -7 20 -140 0 -133 -1 -140 -20 -140 -18 0 -20 7
-20 60 l0 60 -80 0 -80 0 0 -60 c0 -53 -2 -60 -20 -60 -19 0 -20 7 -20 140 0
133 1 140 20 140 18 0 20 -7 20 -60z m479 42 c91 -49 93 -192 3 -245 -42 -25
-127 -25 -160 0 -91 68 -92 181 -3 240 42 29 112 30 160 5z m308 -2 c23 -14
34 -29 39 -55 13 -73 -29 -114 -126 -122 l-60 -6 0 -38 c0 -32 -3 -39 -20 -39
-19 0 -20 7 -20 133 0 74 3 137 7 140 3 4 38 7 77 7 53 0 79 -5 103 -20z m316
-84 l82 -104 3 104 c2 96 4 104 22 104 19 0 20 -7 20 -140 0 -131 -1 -140 -19
-140 -12 0 -48 37 -100 101 l-81 102 0 -102 c0 -94 -1 -101 -20 -101 -19 0
-20 7 -20 140 0 118 2 140 15 140 8 0 52 -47 98 -104z m404 84 c67 -40 88
-112 54 -182 -26 -55 -67 -80 -132 -80 -87 1 -149 61 -149 142 0 44 37 106 74
124 44 22 114 20 153 -4z m163 -84 c18 -58 36 -103 40 -101 3 2 21 49 40 105
47 136 60 135 110 -15 l37 -110 37 113 c31 93 41 112 58 112 12 0 18 -5 16
-12 -3 -7 -24 -71 -48 -141 -37 -113 -44 -128 -63 -125 -16 2 -28 24 -57 107
-20 57 -39 100 -42 95 -3 -5 -20 -53 -37 -106 -28 -84 -36 -98 -55 -98 -19 0
-27 16 -64 128 -23 70 -42 133 -42 140 0 7 8 12 18 12 14 0 25 -23 52 -104z"/>
    <path d="M1123 1364 c-31 -15 -63 -66 -63 -99 0 -48 59 -105 110 -105 53 0
110 55 110 105 0 42 -28 85 -65 101 -43 18 -52 17 -92 -2z"/>
    <path d="M1410 1316 l0 -66 55 0 c62 0 95 22 95 63 0 36 -29 56 -93 63 l-57 7
0 -67z"/>
    <path d="M2153 1365 c-33 -14 -63 -59 -63 -95 0 -53 57 -110 110 -110 53 0
110 57 110 110 0 34 -31 78 -66 95 -39 18 -50 18 -91 0z"/>
    <path d="M4315 1645 c-41 -40 -29 -121 22 -144 69 -31 133 6 133 79 0 56 -34
90 -90 90 -30 0 -47 -6 -65 -25z m103 -11 c15 -10 22 -25 22 -48 0 -62 -48
-91 -93 -55 -33 25 -36 70 -7 99 24 24 48 25 78 4z"/>
    <path d="M4859 1657 c-47 -36 -51 -97 -10 -138 60 -59 152 -24 155 58 1 58
-32 93 -88 93 -23 0 -48 -6 -57 -13z m96 -32 c30 -29 32 -55 7 -85 -37 -45
-112 -15 -112 45 0 24 42 65 67 65 8 0 25 -11 38 -25z"/>
    <path d="M5050 1580 c0 -73 3 -90 15 -90 12 0 15 13 15 56 0 66 11 90 46 98
45 12 64 -16 64 -91 0 -49 3 -63 15 -63 12 0 15 14 15 70 0 57 -4 74 -20 90
-23 23 -88 28 -108 8 -9 -9 -12 -9 -12 0 0 7 -7 12 -15 12 -12 0 -15 -17 -15
-90z"/>
    <path d="M5360 1625 c11 -25 29 -66 40 -91 26 -58 14 -89 -31 -80 -37 7 -47
-11 -14 -26 22 -10 30 -8 52 8 34 26 130 234 107 234 -8 0 -28 -30 -47 -72
l-33 -71 -31 71 c-19 44 -38 72 -47 72 -13 0 -12 -7 4 -45z"/>
    <path d="M9790 1649 c0 -12 25 -22 41 -17 6 2 0 9 -15 16 -16 7 -26 8 -26 1z"/>
    <path d="M4079 1604 c-7 -9 -13 -31 -13 -49 0 -40 19 -65 50 -65 32 0 54 26
54 65 0 18 -7 41 -16 49 -20 21 -58 20 -75 0z m67 -28 c9 -38 -4 -68 -28 -64
-25 4 -38 35 -27 66 11 30 47 29 55 -2z"/>
    <path d="M11663 1492 c-12 -2 -29 -14 -37 -28 -17 -25 -66 -34 -66 -12 0 6 -3
8 -7 5 -3 -4 3 -16 15 -27 12 -12 22 -26 22 -33 1 -19 58 -77 87 -88 19 -7 53
-7 109 1 51 6 90 7 105 1 29 -11 236 -195 299 -266 25 -27 47 -52 50 -55 3 -3
32 -39 65 -80 32 -41 62 -77 65 -80 3 -3 34 -43 69 -90 35 -47 74 -96 87 -110
21 -24 75 -123 88 -165 8 -23 170 -155 191 -155 7 0 15 -7 19 -15 3 -8 13 -15
23 -15 16 1 15 3 -4 19 -13 11 -23 21 -23 23 0 2 -36 40 -80 86 -44 45 -80 90
-80 100 0 9 -14 33 -31 51 -22 24 -29 40 -25 56 4 15 1 25 -9 29 -8 3 -15 12
-15 19 0 8 -20 35 -45 60 -25 26 -45 51 -45 57 0 5 -9 10 -19 10 -12 0 -30 18
-49 48 -16 26 -50 68 -76 94 -25 26 -46 52 -46 57 0 5 -7 11 -15 15 -8 3 -15
11 -15 18 0 7 -18 33 -40 57 -22 24 -40 46 -40 50 0 3 -16 16 -35 29 -19 12
-35 27 -35 32 0 6 -7 10 -16 10 -10 0 -14 6 -11 14 4 10 -3 17 -23 21 -15 3
-36 15 -46 26 -9 10 -22 19 -28 19 -14 0 -96 82 -96 95 0 6 -18 27 -39 47 -37
35 -40 36 -46 17 -9 -27 -50 -42 -77 -28 -11 6 -27 27 -36 47 -13 28 -22 36
-39 34z"/>
    <path d="M15639 1407 c-73 -39 -111 -136 -78 -200 21 -41 74 -89 144 -129 123
-72 150 -112 121 -181 -18 -45 -66 -71 -116 -64 -55 7 -86 32 -116 93 -32 65
-61 71 -57 14 7 -107 12 -119 51 -130 193 -53 332 14 332 159 0 65 -26 96
-151 176 -118 77 -143 106 -136 158 16 117 157 117 209 0 25 -57 48 -57 48 1
0 86 -7 101 -56 114 -72 19 -145 15 -195 -11z"/>
    <path d="M17515 1422 c-10 -10 18 -32 40 -32 15 0 25 -8 29 -22 9 -35 7 -501
-3 -516 -4 -7 -20 -16 -34 -20 -61 -16 -28 -27 91 -30 99 -2 122 0 122 11 0 9
-15 17 -39 21 l-39 6 -7 62 c-4 35 -5 90 -3 123 l3 60 85 0 84 0 10 -32 c6
-22 15 -33 28 -33 17 0 19 7 16 92 -3 101 -17 123 -41 65 -11 -26 -23 -36 -47
-41 -41 -8 -88 -8 -119 1 -24 6 -24 6 -19 121 4 82 9 117 19 123 22 14 136 10
174 -5 23 -10 41 -27 52 -50 18 -39 43 -48 43 -17 0 11 -5 42 -12 70 l-11 51
-209 -2 c-115 -1 -211 -4 -213 -6z"/>
    <path d="M4077 1333 c-4 -3 -7 -62 -7 -130 0 -103 2 -123 15 -123 12 0 15 13
15 55 0 46 4 60 25 80 50 51 85 22 85 -71 0 -50 3 -64 15 -64 22 0 21 127 -1
158 -17 24 -70 30 -105 12 -18 -10 -19 -7 -19 40 0 46 -7 60 -23 43z"/>
    <path d="M5357 1333 c-4 -3 -7 -62 -7 -130 0 -103 2 -123 15 -123 9 0 15 9 15
23 0 13 9 32 21 43 21 19 21 18 57 -24 21 -23 43 -42 50 -42 18 0 15 8 -23 54
-19 24 -35 47 -35 52 0 4 14 23 32 41 50 52 9 41 -51 -13 l-51 -46 0 86 c0 79
-5 97 -23 79z"/>
    <path d="M16061 1305 c-20 -23 -31 -46 -31 -65 0 -22 -5 -30 -18 -30 -19 0
-42 -18 -42 -32 0 -4 14 -8 30 -8 l30 0 0 -145 c0 -179 9 -209 69 -225 46 -12
92 2 125 39 24 26 17 35 -18 21 -39 -14 -53 -13 -76 10 -18 18 -20 33 -20 160
l0 140 59 0 c55 0 71 8 71 36 0 2 -29 4 -65 4 l-65 0 0 65 c0 36 -4 65 -9 65
-5 0 -23 -16 -40 -35z"/>
    <path d="M19412 1307 c-23 -23 -32 -43 -32 -65 0 -24 -4 -32 -18 -32 -19 0
-42 -18 -42 -32 0 -4 14 -8 30 -8 l30 0 0 -156 c0 -92 4 -164 11 -176 15 -27
73 -50 107 -42 37 9 82 42 82 61 0 11 -5 13 -17 8 -41 -17 -64 -17 -83 0 -18
16 -20 32 -20 161 l0 143 57 3 c46 2 59 7 61 21 3 15 -5 17 -57 17 l-61 0 0
59 c0 33 -4 62 -8 65 -5 3 -23 -9 -40 -27z"/>
    <path d="M4300 1314 c0 -9 7 -14 17 -12 25 5 28 28 4 28 -12 0 -21 -6 -21 -16z"/>
    <path d="M3940 1280 c0 -11 -7 -20 -15 -20 -8 0 -15 -4 -15 -10 0 -5 6 -10 14
-10 10 0 15 -19 18 -71 4 -77 14 -91 63 -87 31 3 38 23 7 23 -34 0 -42 15 -42
76 0 59 0 59 30 59 17 0 30 5 30 10 0 6 -13 10 -30 10 -23 0 -30 4 -30 20 0
11 -7 20 -15 20 -8 0 -15 -9 -15 -20z"/>
    <path d="M4300 1170 c0 -73 3 -90 15 -90 12 0 15 17 15 90 0 73 -3 90 -15 90
-12 0 -15 -17 -15 -90z"/>
    <path d="M4398 1249 c-10 -5 -18 -22 -18 -38 0 -29 13 -39 75 -57 16 -5 31
-17 33 -25 4 -21 -30 -30 -70 -18 -39 11 -58 1 -33 -18 28 -20 99 -17 118 5
37 41 18 71 -56 87 -32 6 -47 33 -26 46 8 5 31 7 52 4 29 -4 38 -2 35 7 -6 16
-87 22 -110 7z"/>
    <path d="M4651 1179 c16 -45 32 -86 35 -90 14 -22 32 -4 54 55 13 36 27 63 31
61 3 -3 17 -32 29 -65 15 -41 28 -60 37 -58 9 2 30 42 48 91 26 69 30 87 18
85 -9 -2 -27 -33 -41 -72 l-25 -69 -27 69 c-14 38 -32 70 -40 72 -10 2 -23
-19 -38 -63 -13 -36 -28 -65 -33 -65 -5 0 -9 4 -9 10 0 26 -43 120 -55 120
-11 0 -7 -19 16 -81z"/>
    <path d="M4955 1235 c-19 -18 -25 -35 -25 -65 0 -55 34 -90 88 -90 42 0 79 21
68 38 -4 7 -15 6 -36 -4 -26 -13 -32 -13 -60 1 -54 28 -39 45 40 45 67 0 70 1
70 24 0 13 -9 35 -21 50 -28 36 -89 37 -124 1z m97 -12 c33 -30 23 -43 -37
-43 -61 0 -73 16 -33 44 29 20 47 20 70 -1z"/>
    <path d="M5172 1253 c-18 -7 -42 -57 -42 -88 0 -38 50 -85 90 -85 36 0 70 15
70 31 0 7 -10 8 -27 4 -16 -4 -36 -7 -47 -7 -19 1 -56 29 -56 44 0 4 34 8 75
8 61 0 75 3 75 15 0 25 -27 72 -45 79 -19 7 -74 7 -93 -1z m88 -33 c32 -32 24
-40 -40 -40 -33 0 -60 4 -60 10 0 17 39 50 60 50 11 0 29 -9 40 -20z"/>
    <path d="M16405 1201 c-77 -36 -115 -102 -115 -201 0 -107 56 -180 152 -199
139 -28 248 65 248 210 0 69 -12 104 -48 143 -59 63 -159 83 -237 47z m133
-46 c77 -64 88 -246 19 -303 -46 -39 -121 -12 -155 55 -79 155 24 342 136 248z"/>
    <path d="M16850 1205 c-19 -8 -47 -16 -62 -19 -36 -8 -36 -32 1 -39 23 -5 29
-12 34 -44 9 -49 9 -158 1 -217 -6 -42 -10 -48 -35 -53 -16 -3 -29 -12 -29
-19 0 -11 24 -14 115 -14 91 0 115 3 115 14 0 8 -16 16 -40 20 -35 5 -40 10
-46 41 -3 19 -4 73 -3 119 4 81 6 87 36 118 l32 32 40 -19 c34 -15 43 -16 56
-5 26 22 15 72 -18 88 -37 18 -77 2 -112 -42 l-25 -31 0 43 c0 46 -4 48 -60
27z"/>
    <path d="M17242 1199 c-134 -66 -163 -269 -53 -362 79 -66 203 -54 256 27 25
38 9 48 -32 21 -81 -56 -185 -10 -213 94 -6 23 -9 45 -7 47 2 3 60 8 128 12
l124 7 3 39 c5 54 -34 111 -85 125 -54 15 -72 14 -121 -10z m94 -44 c17 -17
24 -34 22 -53 -3 -27 -4 -27 -80 -30 -52 -2 -78 1 -78 8 0 21 30 69 52 84 32
22 55 20 84 -9z"/>
    <path d="M18058 1197 c-38 -11 -68 -26 -68 -32 0 -6 15 -15 33 -20 l32 -10 5
-147 c5 -144 5 -147 32 -167 19 -16 41 -21 82 -21 69 0 77 22 14 36 l-43 9 -3
113 c-2 101 0 116 18 142 27 38 53 45 89 24 41 -24 61 -13 61 35 0 36 -3 40
-35 51 -41 14 -59 6 -105 -46 l-32 -37 2 34 c3 47 1 59 -7 58 -5 -1 -38 -11
-75 -22z"/>
    <path d="M18492 1209 c-44 -13 -106 -79 -120 -127 -52 -173 70 -318 235 -281
99 22 156 100 156 214 0 77 -33 141 -88 175 -41 25 -132 35 -183 19z m123 -60
c79 -69 86 -233 12 -295 -34 -29 -62 -30 -103 -5 -46 28 -74 93 -74 175 0 137
81 199 165 125z"/>
    <path d="M18920 1205 c-19 -8 -47 -16 -62 -19 -36 -8 -36 -32 1 -39 33 -7 41
-36 41 -157 0 -121 -8 -150 -41 -157 -16 -3 -29 -12 -29 -19 0 -11 23 -14 105
-14 82 0 105 3 105 14 0 7 -13 16 -29 19 -37 8 -41 24 -41 164 l0 112 32 22
c42 30 95 30 119 1 23 -29 31 -85 27 -197 l-3 -90 -32 -10 c-18 -5 -33 -15
-33 -22 0 -10 26 -13 105 -13 84 0 105 3 105 14 0 8 -13 17 -30 21 l-30 7 0
113 c0 202 -25 258 -118 259 -37 1 -58 -6 -90 -27 l-42 -27 0 30 c0 33 -7 35
-60 15z"/>
    <path d="M6755 1059 c-4 -6 -39 -35 -79 -64 -111 -84 -121 -93 -114 -101 11
-11 66 14 150 69 74 48 76 50 62 72 -8 12 -11 25 -7 28 3 4 4 7 0 7 -3 0 -9
-5 -12 -11z"/>
    <path d="M10450 1016 c0 -17 5 -26 15 -26 9 0 32 -8 53 -19 44 -22 152 -51
192 -51 33 0 53 21 48 52 -3 22 -8 23 -78 24 -95 1 -194 16 -214 33 -14 12
-16 10 -16 -13z"/>
    <path d="M8697 993 c-2 -5 -10 -30 -17 -57 -13 -48 -13 -50 10 -65 13 -9 60
-43 104 -76 119 -90 152 -113 204 -139 26 -13 56 -33 66 -45 11 -12 27 -21 37
-21 10 0 21 -4 24 -10 11 -18 35 -11 35 11 0 58 -100 166 -285 309 -115 89
-166 115 -178 93z"/>
    <path d="M4370 801 c0 -111 2 -131 15 -131 13 0 15 18 13 127 -2 90 -7 128
-15 131 -10 3 -13 -27 -13 -127z"/>
    <path d="M4460 801 c0 -111 2 -131 15 -131 13 0 15 18 13 127 -2 90 -7 128
-15 131 -10 3 -13 -27 -13 -127z"/>
    <path d="M5243 920 c-16 -6 -23 -18 -23 -36 0 -17 -6 -28 -20 -31 -11 -3 -20
-9 -20 -13 0 -4 9 -10 20 -13 18 -5 20 -14 20 -81 0 -100 18 -98 22 2 3 76 3
77 31 80 37 4 35 22 -3 22 -16 0 -30 4 -30 9 0 27 15 41 41 41 16 0 29 5 29
10 0 6 -4 10 -9 10 -5 0 -15 2 -23 4 -7 3 -23 1 -35 -4z"/>
    <path d="M5322 908 c7 -19 38 -22 38 -4 0 10 -9 16 -21 16 -12 0 -19 -5 -17
-12z"/>
    <path d="M5080 870 c0 -11 -7 -20 -15 -20 -8 0 -15 -4 -15 -10 0 -5 6 -10 14
-10 10 0 15 -19 18 -71 4 -77 14 -91 63 -87 31 3 38 23 7 23 -34 0 -42 15 -42
76 0 59 0 59 30 59 17 0 30 5 30 10 0 6 -13 10 -30 10 -23 0 -30 4 -30 20 0
11 -7 20 -15 20 -8 0 -15 -9 -15 -20z"/>
    <path d="M5420 870 c0 -11 -7 -20 -15 -20 -8 0 -15 -4 -15 -10 0 -5 7 -10 15
-10 12 0 15 -13 15 -58 0 -74 19 -104 63 -100 33 3 40 23 9 23 -34 0 -42 15
-42 76 0 59 0 59 30 59 17 0 30 5 30 10 0 6 -13 10 -30 10 -23 0 -30 4 -30 20
0 11 -7 20 -15 20 -8 0 -15 -9 -15 -20z"/>
    <path d="M8347 862 c-4 -5 -21 -12 -39 -16 -37 -7 -158 -92 -158 -111 0 -20
10 -24 38 -15 15 4 52 13 82 20 30 7 64 20 75 30 26 23 84 41 133 42 45 0 82
22 65 39 -15 15 -188 25 -196 11z"/>
    <path d="M4175 837 c-24 -18 -3 -32 26 -17 26 14 65 6 73 -16 10 -26 -2 -34
-49 -34 -66 0 -93 -50 -47 -87 20 -16 74 -17 90 -1 9 9 12 9 12 0 0 -7 7 -12
16 -12 25 0 16 146 -11 166 -24 18 -86 18 -110 1z m105 -101 c0 -16 -37 -46
-55 -46 -6 0 -20 6 -30 14 -16 12 -17 16 -6 30 18 21 91 22 91 2z"/>
    <path d="M4659 837 c-47 -36 -51 -97 -10 -138 60 -59 152 -24 155 58 1 58 -32
93 -88 93 -23 0 -48 -6 -57 -13z m96 -32 c30 -29 32 -55 7 -85 -37 -45 -112
-15 -112 45 0 24 42 65 67 65 8 0 25 -11 38 -25z"/>
    <path d="M4850 780 c0 -57 4 -74 20 -90 22 -22 70 -26 101 -10 13 7 19 7 19 0
0 -5 7 -10 15 -10 12 0 15 17 15 90 0 73 -3 90 -15 90 -11 0 -15 -13 -15 -53
0 -64 -20 -97 -59 -97 -41 0 -51 17 -51 87 0 49 -3 63 -15 63 -12 0 -15 -14
-15 -70z"/>
    <path d="M5330 760 c0 -53 4 -90 10 -90 6 0 10 37 10 90 0 53 -4 90 -10 90 -6
0 -10 -37 -10 -90z"/>
    <path d="M7948 608 c9 -9 15 -9 24 0 9 9 7 12 -12 12 -19 0 -21 -3 -12 -12z"/>
    <path d="M8155 540 c-3 -5 -27 -10 -52 -10 -26 0 -61 -5 -79 -12 -18 -6 -39
-8 -50 -3 -25 11 -54 7 -81 -11 -12 -8 -29 -14 -37 -14 -23 0 -27 -16 -11 -46
8 -16 15 -39 15 -51 0 -13 3 -23 7 -23 9 0 62 17 168 55 50 18 110 38 135 45
64 17 90 28 90 38 0 20 -95 49 -105 32z"/>
    <path d="M8300 521 c0 -5 9 -12 19 -16 35 -11 69 -44 91 -90 31 -63 100 -110
100 -67 0 65 -44 138 -102 168 -30 16 -108 19 -108 5z"/>
    <path d="M5737 514 c-23 -23 22 -89 109 -161 126 -105 225 -145 449 -183 136
-23 776 -3 902 27 l32 8 -95 82 c-93 82 -94 83 -148 83 -50 0 -56 -3 -72 -29
-30 -51 -115 -76 -167 -50 -12 6 -33 22 -47 35 -25 23 -27 23 -140 13 -232
-20 -373 -15 -570 22 -56 10 -120 38 -120 51 0 4 -19 20 -42 35 -24 16 -52 38
-63 51 -11 13 -24 20 -28 16z"/>
    <path d="M11497 485 c-4 -8 -2 -17 3 -20 6 -4 10 3 10 14 0 25 -6 27 -13 6z"/>
    <path d="M7497 453 c-10 -9 -9 -25 1 -19 4 2 14 0 22 -5 15 -10 5 -9 -62 6
-50 12 -51 -8 -3 -93 43 -77 48 -82 73 -76 34 7 156 45 161 50 6 6 -30 44 -41
44 -6 0 -35 23 -66 50 -54 49 -71 57 -85 43z"/>
    <path d="M7212 396 l-44 -11 64 -52 c34 -28 74 -63 87 -77 17 -18 35 -26 58
-26 l33 0 -17 28 c-10 15 -22 30 -28 34 -5 4 -6 8 -1 8 5 0 0 10 -11 23 -11
12 -28 37 -37 55 -18 35 -32 38 -104 18z"/>
    <path d="M11481 340 c-2 -44 -11 -96 -26 -152 l-7 -28 66 0 c39 0 66 4 66 10
0 11 -32 61 -63 96 -10 12 -22 44 -26 70 l-9 49 -1 -45z"/>
    <path d="M8445 318 c4 -13 11 -36 16 -53 5 -16 13 -46 17 -65 8 -33 11 -35 54
-38 39 -3 46 0 44 15 0 10 -8 25 -16 33 -8 8 -31 36 -50 62 -19 25 -43 51 -53
58 -17 10 -18 9 -12 -12z"/>
  </g>
</svg>
